Coordinates
version=1
nRows=29
nColumns=24
inDegrees=yes

Units are S.I. units (second, meters, Newtons, ...)
Angles are in degrees.

endheader
time	pelvis_tilt	pelvis_list	pelvis_rotation	pelvis_tx	pelvis_ty	pelvis_tz	hip_flexion_r	hip_adduction_r	hip_rotation_r	knee_angle_r	ankle_angle_r	subtalar_angle_r	mtp_angle_r	hip_flexion_l	hip_adduction_l	hip_rotation_l	knee_angle_l	ankle_angle_l	subtalar_angle_l	mtp_angle_l	lumbar_extension	lumbar_bending	lumbar_rotation
      0.94666667	     -1.04995710	     -4.71156576	      0.80835260	     -0.38568936	      1.00094814	      0.34522694	      9.59016840	     10.58630013	      0.35215988	    -15.11893765	      3.98997374	    -13.10171149	     -0.18429767	     15.52688979	     -4.53654403	      1.37470623	    -70.79266571	    -10.16399793	    -11.31881602	      3.19469057	      2.62943233	      9.09332036	      2.53489196
      0.95083333	     -1.04460395	     -4.59995860	      0.65339569	     -0.38093806	      1.00151273	      0.34549513	      9.09928892	     10.49618513	      0.51264349	    -14.79096012	      4.01524990	    -13.00324195	     -0.18790367	     16.13440256	     -4.39100803	      1.34805000	    -70.83253472	     -9.55706606	    -11.70854350	      3.15707881	      2.57787128	      8.98292682	      2.63634825
      0.95500000	     -1.02188529	     -4.49541794	      0.47903551	     -0.37620960	      1.00205870	      0.34579033	      8.60029109	     10.41396322	      0.68432581	    -14.48151874	      4.01834867	    -12.89728194	     -0.19318679	     16.71558633	     -4.26925755	      1.28871439	    -70.83767780	     -8.94547268	    -12.09562710	      3.11128230	      2.48832076	      8.87450524	      2.76218082
      0.95916667	     -0.94930990	     -4.40198116	      0.28933505	     -0.37149978	      1.00263825	      0.34613522	      8.03463517	     10.35012533	      0.90780570	    -14.14117344	      3.97894309	    -12.79671580	     -0.22533134	     17.23196536	     -4.17834700	      1.20506250	    -70.79882706	     -8.36698541	    -12.44112091	      2.89574121	      2.31460925	      8.75782161	      3.14617369
      0.96333333	     -0.89612615	     -4.30874910	      0.10917413	     -0.36679304	      1.00317345	      0.34643936	      7.49802377	     10.27898856	      1.11351252	    -13.81816925	      3.98855087	    -12.72386097	     -0.27212572	     17.76195996	     -4.08070175	      1.13958298	    -70.72017002	     -7.74297746	    -12.71610520	      2.61294622	      2.18386737	      8.65664918	      3.32461350
      0.96750000	     -0.89314074	     -4.19972600	     -0.07401627	     -0.36213517	      1.00359923	      0.34672216	      7.04963404	     10.18226303	      1.27967534	    -13.55909099	      4.02456899	    -12.62750075	     -0.28810452	     18.34535688	     -3.96060661	      1.07745867	    -70.60762149	     -7.12457325	    -12.99325137	      2.52085341	      2.10761813	      8.53679181	      3.38601455
      0.97166667	     -0.88624279	     -4.09700532	     -0.25737420	     -0.35745817	      1.00400086	      0.34699842	      6.58476784	     10.09024296	      1.46202079	    -13.27533839	      4.05688092	    -12.51883012	     -0.30720636	     18.91233300	     -3.85033780	      1.01920400	    -70.45210469	     -6.51263670	    -13.20106112	      2.42042378	      2.03101675	      8.42487769	      3.51236285
      0.97583333	     -0.82841556	     -4.00332908	     -0.42496200	     -0.35276313	      1.00447382	      0.34725489	      6.04120621	     10.00617221	      1.66701731	    -12.94206933	      4.09417817	    -12.42965063	     -0.35192279	     19.40928033	     -3.74941606	      0.98008516	    -70.24314398	     -5.90305117	    -13.29647320	      2.21525537	      1.89885025	      8.33171945	      3.75346072
      0.98000000	     -0.84186528	     -3.90112932	     -0.60080662	     -0.34810845	      1.00479078	      0.34748837	      5.61368382	      9.90397619	      1.81598317	    -12.68409705	      4.15766722	    -12.34468545	     -0.36381546	     19.98386277	     -3.63630967	      0.93436945	    -70.00834825	     -5.32222110	    -13.48188198	      2.16298057	      1.86738946	      8.23115598	      3.80280999
      0.98416667	     -0.81385646	     -3.81461342	     -0.79355039	     -0.34346916	      1.00513739	      0.34778840	      5.13229793	      9.82477183	      2.02834828	    -12.40796006	      4.19335597	    -12.23448673	     -0.39267823	     20.50007977	     -3.56716378	      0.86130448	    -69.73562956	     -4.68619330	    -13.49828714	      2.05495798	      1.74456212	      8.11780311	      3.96070747
      0.98833333	     -0.77652166	     -3.72644687	     -0.96853266	     -0.33883148	      1.00548397	      0.34802089	      4.63456086	      9.73422155	      2.21522307	    -12.11380745	      4.25101374	    -12.14678720	     -0.42857012	     20.99597338	     -3.47738685	      0.82267978	    -69.41777031	     -4.08154755	    -13.49474285	      1.93378497	      1.62729137	      8.01737481	      4.12601418
      0.99250000	     -0.73769829	     -3.63844639	     -1.13595270	     -0.33417120	      1.00581927	      0.34825152	      4.13070589	      9.64191395	      2.40263862	    -11.81336392	      4.31213306	    -12.06035856	     -0.47148350	     21.47597886	     -3.39039156	      0.78777066	    -69.05139788	     -3.49648834	    -13.44931227	      1.80429159	      1.51724838	      7.92343108	      4.28511913
      0.99666667	     -0.71318127	     -3.55700110	     -1.30580729	     -0.32952178	      1.00608765	      0.34847639	      3.64795388	      9.55162984	      2.57573038	    -11.52143780	      4.38042862	    -11.97910991	     -0.52563194	     21.96462678	     -3.31743314	      0.74953224	    -68.65600163	     -2.90919566	    -13.35056575	      1.65782145	      1.43469944	      7.84401925	      4.44535389
      1.00083333	     -0.70356645	     -3.46469753	     -1.49488822	     -0.32490989	      1.00631026	      0.34870879	      3.20426039	      9.44550676	      2.74126255	    -11.27230157	      4.44520023	    -11.88398630	     -0.55338421	     22.45583794	     -3.23869554	      0.68750002	    -68.21586688	     -2.34825725	    -13.31692318	      1.59044244	      1.36001483	      7.73930844	      4.52123072
      1.00500000	     -0.67612791	     -3.39773575	     -1.65827470	     -0.32027774	      1.00651887	      0.34892158	      2.72238906	      9.36522621	      2.91362116	    -10.98551292	      4.51409293	    -11.77994290	     -0.59143246	     22.92202264	     -3.18597577	      0.65709293	    -67.74818442	     -1.77300722	    -13.13585523	      1.50830471	      1.26023481	      7.67022059	      4.65718440
      1.00916667	     -0.65991044	     -3.32530624	     -1.82250027	     -0.31565625	      1.00667853	      0.34912672	      2.25931384	      9.27430972	      3.06903857	    -10.70917854	      4.58942226	    -11.68494321	     -0.62789225	     23.38904637	     -3.12675800	      0.62759093	    -67.24214941	     -1.23317565	    -12.97331643	      1.43616305	      1.17291297	      7.58306905	      4.77981063
      1.01333333	     -0.60621756	     -3.27497821	     -1.96575614	     -0.31102560	      1.00688024	      0.34929840	      1.73708093	      9.20210018	      3.21679389	    -10.39074488	      4.66553190	    -11.60160384	     -0.69146468	     23.80364791	     -3.08698609	      0.62021798	    -66.69520368	     -0.70920215	    -12.72412616	      1.31973740	      1.05120114	      7.53608542	      4.95176471
      1.01750000	     -0.59994467	     -3.20946740	     -2.13595621	     -0.30640634	      1.00697374	      0.34948826	      1.29229777	      9.11199698	      3.37750082	    -10.12921695	      4.73329363	    -11.50470628	     -0.73439971	     24.25201291	     -3.03987702	      0.58351710	    -66.10881778	     -0.20124033	    -12.53989928	      1.24832959	      0.98181290	      7.47350188	      5.04342021
      1.02166667	     -0.56070605	     -3.14689661	     -2.29006372	     -0.30177598	      1.00709961	      0.34966582	      0.80088354	      9.01982123	      3.51636405	     -9.84164940	      4.80599404	    -11.40070908	     -0.77834690	     24.65089080	     -2.99614941	      0.55514753	    -65.48069866	      0.29333552	    -12.30620498	      1.18087109	      0.86807091	      7.39883202	      5.15650403
      1.02583333	     -0.55319994	     -3.10391004	     -2.43380120	     -0.29715787	      1.00711958	      0.34982371	      0.34761195	      8.94750119	      3.64464134	     -9.55912417	      4.88055046	    -11.29852706	     -0.82206115	     25.08039656	     -2.97137179	      0.54331729	    -64.83156046	      0.76105097	    -12.06999666	      1.11748575	      0.79987037	      7.35569493	      5.26859904
      1.03000000	     -0.51472482	     -3.06252044	     -2.57722918	     -0.29252595	      1.00718050	      0.34997643	     -0.14432227	      8.87202793	      3.77326389	     -9.26600775	      4.95119882	    -11.19334587	     -0.86710746	     25.45535943	     -2.95039033	      0.52489934	    -64.13501101	      1.20851653	    -11.82874868	      1.05590093	      0.69031421	      7.30916740	      5.38021154
      1.03416667	     -0.49493174	     -3.02549820	     -2.71227900	     -0.28788766	      1.00716997	      0.35011506	     -0.61262831	      8.79918072	      3.89138840	     -8.98082982	      5.02213016	    -11.08987284	     -0.90896098	     25.83980280	     -2.93246765	      0.51419655	    -63.40755725	      1.63083938	    -11.59778782	      1.00140475	      0.60626800	      7.26611801	      5.48195598
      1.03833333	     -0.46924893	     -2.99337881	     -2.84402831	     -0.28324508	      1.00714448	      0.35024200	     -1.08894476	      8.72768133	      4.00086135	     -8.69011332	      5.09163885	    -10.97866671	     -0.94985747	     26.20136131	     -2.91929344	      0.50498785	    -62.64123045	      2.03061139	    -11.36535836	      0.94969199	      0.51728688	      7.23058047	      5.58341747
      1.04250000	     -0.42704832	     -2.96364179	     -2.96929736	     -0.27859550	      1.00711541	      0.35036109	     -1.58580595	      8.65465012	      4.10002548	     -8.39243968	      5.16214824	    -10.86503390	     -0.99267672	     26.52903746	     -2.91077118	      0.49041943	    -61.83577797	      2.40714283	    -11.14120794	      0.89636186	      0.40955627	      7.19533491	      5.68964073
      1.04666667	     -0.41182727	     -2.94319342	     -3.09005111	     -0.27393789	      1.00700660	      0.35046743	     -2.04785182	      8.59101383	      4.19199110	     -8.10818770	      5.23422239	    -10.75062395	     -1.03501400	     26.87340463	     -2.91078720	      0.48359412	    -61.00145975	      2.75966954	    -10.92874528	      0.84382218	      0.33436246	      7.17078087	      5.79008617
      1.05083333	     -0.38588361	     -2.93144146	     -3.20486132	     -0.26927293	      1.00689523	      0.35056290	     -2.52364369	      8.53377521	      4.28326164	     -7.82073791	      5.30619938	    -10.63607204	     -1.07386154	     27.18882116	     -2.91873341	      0.47926005	    -60.12959748	      3.09193451	    -10.72769155	      0.79635679	      0.24659732	      7.15562706	      5.88052691
      1.05500000	     -0.37759458	     -2.92564037	     -3.31662287	     -0.26461216	      1.00671313	      0.35065160	     -2.97633088	      8.48246639	      4.37012968	     -7.53969935	      5.37830019	    -10.51826961	     -1.10759991	     27.51095955	     -2.93334102	      0.47788690	    -59.22764839	      3.40331652	    -10.54083767	      0.75533558	      0.17896220	      7.14871816	      5.96484985
      1.05916667	     -0.33765837	     -2.93257891	     -3.41177214	     -0.25992404	      1.00653856	      0.35072389	     -3.47114081	      8.44062134	      4.42825105	     -7.24449766	      5.45908097	    -10.40322627	     -1.14820547	     27.78472568	     -2.96151335	      0.47341123	    -58.29592242	      3.69738602	    -10.35248125	      0.70489999	      0.08292845	      7.14868913	      6.06351998
      1.06333333	     -0.33671091	     -2.92233353	     -3.52141700	     -0.25524289	      1.00630308	      0.35079469	     -3.90795436	      8.37920890	      4.50825718	     -6.98193330	      5.53277208	    -10.27880756	     -1.17942472	     28.07369882	     -2.96955988	      0.46818588	    -57.31087873	      3.96304295	    -10.19584379	      0.66479048	      0.02536815	      7.13573656	      6.14146466
